<?xml version="1.0" encoding="utf-8"?>
<!-- Generator: Adobe Illustrator 25.2.0, SVG Export Plug-In . SVG Version: 6.00 Build 0)  -->
<svg version="1.1" id="Layer_1" xmlns="http://www.w3.org/2000/svg" xmlns:xlink="http://www.w3.org/1999/xlink" x="0px" y="0px"
	 viewBox="0 0 300 300" style="enable-background:new 0 0 300 300;" xml:space="preserve">
<style type="text/css">
	.st0{display:none;fill:#FFFFFF;stroke:#000000;stroke-miterlimit:10;}
	.st1{fill:#FFFFFF;stroke:#000000;stroke-width:0.5;stroke-miterlimit:10;}
</style>
<polygon class="st0" points="150.4,150.5 153.9,50.6 150.4,150.5 160.8,51 150.4,150.5 167.7,52 150.4,150.5 174.6,53.5 
	150.4,150.5 181.3,55.4 150.4,150.5 187.8,57.8 150.4,150.5 194.2,60.6 150.4,150.5 200.4,63.9 150.4,150.5 206.3,67.6 150.4,150.5 
	211.9,71.7 150.4,150.5 217.3,76.2 150.4,150.5 222.3,81 150.4,150.5 227,86.2 150.4,150.5 231.3,91.7 150.4,150.5 235.2,97.5 
	150.4,150.5 238.7,103.6 150.4,150.5 241.7,109.8 150.4,150.5 244.3,116.3 150.4,150.5 246.5,122.9 150.4,150.5 248.2,129.7 
	150.4,150.5 249.4,136.6 150.4,150.5 250.1,143.5 150.4,150.5 250.4,150.5 150.4,150.5 250.1,157.5 150.4,150.5 249.4,164.4 
	150.4,150.5 248.2,171.3 150.4,150.5 246.5,178.1 150.4,150.5 244.3,184.7 150.4,150.5 241.7,191.2 150.4,150.5 238.7,197.4 
	150.4,150.5 235.2,203.5 150.4,150.5 231.3,209.3 150.4,150.5 227,214.8 150.4,150.5 222.3,220 150.4,150.5 217.3,224.8 
	150.4,150.5 211.9,229.3 150.4,150.5 206.3,233.4 150.4,150.5 200.4,237.1 150.4,150.5 194.2,240.4 150.4,150.5 187.8,243.2 
	150.4,150.5 181.3,245.6 150.4,150.5 174.6,247.5 150.4,150.5 167.7,249 150.4,150.5 160.8,250 150.4,150.5 153.9,250.4 
	150.4,150.5 146.9,250.4 150.4,150.5 139.9,250 150.4,150.5 133,249 150.4,150.5 126.2,247.5 150.4,150.5 119.5,245.6 150.4,150.5 
	112.9,243.2 150.4,150.5 106.5,240.4 150.4,150.5 100.4,237.1 150.4,150.5 94.4,233.4 150.4,150.5 88.8,229.3 150.4,150.5 
	83.5,224.8 150.4,150.5 78.4,220 150.4,150.5 73.8,214.8 150.4,150.5 69.5,209.3 150.4,150.5 65.6,203.5 150.4,150.5 62.1,197.4 
	150.4,150.5 59,191.2 150.4,150.5 56.4,184.7 150.4,150.5 54.2,178.1 150.4,150.5 52.6,171.3 150.4,150.5 51.3,164.4 150.4,150.5 
	50.6,157.5 150.4,150.5 50.4,150.5 150.4,150.5 50.6,143.5 150.4,150.5 51.3,136.6 150.4,150.5 52.6,129.7 150.4,150.5 54.2,122.9 
	150.4,150.5 56.4,116.3 150.4,150.5 59,109.8 150.4,150.5 62.1,103.6 150.4,150.5 65.6,97.5 150.4,150.5 69.5,91.7 150.4,150.5 
	73.8,86.2 150.4,150.5 78.4,81 150.4,150.5 83.5,76.2 150.4,150.5 88.8,71.7 150.4,150.5 94.4,67.6 150.4,150.5 100.4,63.9 
	150.4,150.5 106.5,60.6 150.4,150.5 112.9,57.8 150.4,150.5 119.5,55.4 150.4,150.5 126.2,53.5 150.4,150.5 133,52 150.4,150.5 
	139.9,51 150.4,150.5 146.9,50.6 "/>
<polygon class="st0" points="150.4,150.5 154.3,50.6 150.4,150.5 162.1,51.2 150.4,150.5 169.9,52.4 150.4,150.5 177.5,54.3 
	150.4,150.5 185,56.7 150.4,150.5 192.2,59.7 150.4,150.5 199.2,63.3 150.4,150.5 205.9,67.4 150.4,150.5 212.3,72 150.4,150.5 
	218.2,77.1 150.4,150.5 223.8,82.6 150.4,150.5 228.9,88.6 150.4,150.5 233.5,94.9 150.4,150.5 237.6,101.6 150.4,150.5 
	241.2,108.6 150.4,150.5 244.2,115.9 150.4,150.5 246.6,123.4 150.4,150.5 248.4,131 150.4,150.5 249.7,138.7 150.4,150.5 
	250.3,146.6 150.4,150.5 250.3,154.4 150.4,150.5 249.7,162.3 150.4,150.5 248.4,170 150.4,150.5 246.6,177.6 150.4,150.5 
	244.2,185.1 150.4,150.5 241.2,192.4 150.4,150.5 237.6,199.4 150.4,150.5 233.5,206.1 150.4,150.5 228.9,212.4 150.4,150.5 
	223.8,218.4 150.4,150.5 218.2,223.9 150.4,150.5 212.3,229 150.4,150.5 205.9,233.6 150.4,150.5 199.2,237.7 150.4,150.5 
	192.2,241.3 150.4,150.5 185,244.3 150.4,150.5 177.5,246.7 150.4,150.5 169.9,248.6 150.4,150.5 162.1,249.8 150.4,150.5 
	154.3,250.4 150.4,150.5 146.4,250.4 150.4,150.5 138.6,249.8 150.4,150.5 130.9,248.6 150.4,150.5 123.2,246.7 150.4,150.5 
	115.8,244.3 150.4,150.5 108.5,241.3 150.4,150.5 101.5,237.7 150.4,150.5 94.8,233.6 150.4,150.5 88.5,229 150.4,150.5 82.5,223.9 
	150.4,150.5 76.9,218.4 150.4,150.5 71.8,212.4 150.4,150.5 67.2,206.1 150.4,150.5 63.1,199.4 150.4,150.5 59.6,192.4 150.4,150.5 
	56.5,185.1 150.4,150.5 54.1,177.6 150.4,150.5 52.3,170 150.4,150.5 51.1,162.3 150.4,150.5 50.4,154.4 150.4,150.5 50.4,146.6 
	150.4,150.5 51.1,138.7 150.4,150.5 52.3,131 150.4,150.5 54.1,123.4 150.4,150.5 56.5,115.9 150.4,150.5 59.6,108.6 150.4,150.5 
	63.1,101.6 150.4,150.5 67.2,94.9 150.4,150.5 71.8,88.6 150.4,150.5 76.9,82.6 150.4,150.5 82.5,77.1 150.4,150.5 88.5,72 
	150.4,150.5 94.8,67.4 150.4,150.5 101.5,63.3 150.4,150.5 108.5,59.7 150.4,150.5 115.8,56.7 150.4,150.5 123.2,54.3 150.4,150.5 
	130.9,52.4 150.4,150.5 138.6,51.2 150.4,150.5 146.4,50.6 "/>
<polygon class="st0" points="150.4,150.5 154.9,50.6 150.4,150.5 163.8,51.4 150.4,150.5 172.6,53 150.4,150.5 181.3,55.4 
	150.4,150.5 189.7,58.5 150.4,150.5 197.8,62.4 150.4,150.5 205.5,67 150.4,150.5 212.7,72.3 150.4,150.5 219.5,78.2 150.4,150.5 
	225.7,84.7 150.4,150.5 231.3,91.7 150.4,150.5 236.2,99.2 150.4,150.5 240.5,107.1 150.4,150.5 244,115.4 150.4,150.5 246.8,123.9 
	150.4,150.5 248.8,132.6 150.4,150.5 250,141.5 150.4,150.5 250.4,150.5 150.4,150.5 250,159.5 150.4,150.5 248.8,168.4 
	150.4,150.5 246.8,177.1 150.4,150.5 244,185.6 150.4,150.5 240.5,193.9 150.4,150.5 236.2,201.8 150.4,150.5 231.3,209.3 
	150.4,150.5 225.7,216.3 150.4,150.5 219.5,222.8 150.4,150.5 212.7,228.7 150.4,150.5 205.5,234 150.4,150.5 197.8,238.6 
	150.4,150.5 189.7,242.5 150.4,150.5 181.3,245.6 150.4,150.5 172.6,248 150.4,150.5 163.8,249.6 150.4,150.5 154.9,250.4 
	150.4,150.5 145.9,250.4 150.4,150.5 136.9,249.6 150.4,150.5 128.1,248 150.4,150.5 119.5,245.6 150.4,150.5 111.1,242.5 
	150.4,150.5 103,238.6 150.4,150.5 95.3,234 150.4,150.5 88,228.7 150.4,150.5 81.3,222.8 150.4,150.5 75.1,216.3 150.4,150.5 
	69.5,209.3 150.4,150.5 64.5,201.8 150.4,150.5 60.3,193.9 150.4,150.5 56.7,185.6 150.4,150.5 54,177.1 150.4,150.5 52,168.4 
	150.4,150.5 50.8,159.5 150.4,150.5 50.4,150.5 150.4,150.5 50.8,141.5 150.4,150.5 52,132.6 150.4,150.5 54,123.9 150.4,150.5 
	56.7,115.4 150.4,150.5 60.3,107.1 150.4,150.5 64.5,99.2 150.4,150.5 69.5,91.7 150.4,150.5 75.1,84.7 150.4,150.5 81.3,78.2 
	150.4,150.5 88,72.3 150.4,150.5 95.3,67 150.4,150.5 103,62.4 150.4,150.5 111.1,58.5 150.4,150.5 119.5,55.4 150.4,150.5 
	128.1,53 150.4,150.5 136.9,51.4 150.4,150.5 145.9,50.6 "/>
<polygon class="st0" points="150.4,150.5 155.6,50.6 150.4,150.5 166,51.7 150.4,150.5 176.2,53.9 150.4,150.5 186.2,57.1 
	150.4,150.5 195.8,61.4 150.4,150.5 204.8,66.6 150.4,150.5 213.3,72.8 150.4,150.5 221.1,79.8 150.4,150.5 228.1,87.6 150.4,150.5 
	234.2,96 150.4,150.5 239.5,105.1 150.4,150.5 243.7,114.7 150.4,150.5 247,124.6 150.4,150.5 249.1,134.9 150.4,150.5 250.2,145.3 
	150.4,150.5 250.2,155.7 150.4,150.5 249.1,166.1 150.4,150.5 247,176.4 150.4,150.5 243.7,186.3 150.4,150.5 239.5,195.9 
	150.4,150.5 234.2,205 150.4,150.5 228.1,213.4 150.4,150.5 221.1,221.2 150.4,150.5 213.3,228.2 150.4,150.5 204.8,234.4 
	150.4,150.5 195.8,239.6 150.4,150.5 186.2,243.9 150.4,150.5 176.2,247.1 150.4,150.5 166,249.3 150.4,150.5 155.6,250.4 
	150.4,150.5 145.1,250.4 150.4,150.5 134.7,249.3 150.4,150.5 124.5,247.1 150.4,150.5 114.5,243.9 150.4,150.5 105,239.6 
	150.4,150.5 95.9,234.4 150.4,150.5 87.4,228.2 150.4,150.5 79.7,221.2 150.4,150.5 72.7,213.4 150.4,150.5 66.5,205 150.4,150.5 
	61.3,195.9 150.4,150.5 57,186.3 150.4,150.5 53.8,176.4 150.4,150.5 51.6,166.1 150.4,150.5 50.5,155.7 150.4,150.5 50.5,145.3 
	150.4,150.5 51.6,134.9 150.4,150.5 53.8,124.6 150.4,150.5 57,114.7 150.4,150.5 61.3,105.1 150.4,150.5 66.5,96 150.4,150.5 
	72.7,87.6 150.4,150.5 79.7,79.8 150.4,150.5 87.4,72.8 150.4,150.5 95.9,66.6 150.4,150.5 105,61.4 150.4,150.5 114.5,57.1 
	150.4,150.5 124.5,53.9 150.4,150.5 134.7,51.7 150.4,150.5 145.1,50.6 "/>
<polygon class="st0" points="150.4,150.5 156.6,50.7 150.4,150.5 169.1,52.3 150.4,150.5 181.3,55.4 150.4,150.5 192.9,60 
	150.4,150.5 203.9,66.1 150.4,150.5 214.1,73.4 150.4,150.5 223.3,82 150.4,150.5 231.3,91.7 150.4,150.5 238,102.3 150.4,150.5 
	243.3,113.7 150.4,150.5 247.2,125.6 150.4,150.5 249.6,138 150.4,150.5 250.4,150.5 150.4,150.5 249.6,163 150.4,150.5 
	247.2,175.4 150.4,150.5 243.3,187.3 150.4,150.5 238,198.7 150.4,150.5 231.3,209.3 150.4,150.5 223.3,219 150.4,150.5 
	214.1,227.6 150.4,150.5 203.9,234.9 150.4,150.5 192.9,241 150.4,150.5 181.3,245.6 150.4,150.5 169.1,248.7 150.4,150.5 
	156.6,250.3 150.4,150.5 144.1,250.3 150.4,150.5 131.6,248.7 150.4,150.5 119.5,245.6 150.4,150.5 107.8,241 150.4,150.5 
	96.8,234.9 150.4,150.5 86.6,227.6 150.4,150.5 77.5,219 150.4,150.5 69.5,209.3 150.4,150.5 62.7,198.7 150.4,150.5 57.4,187.3 
	150.4,150.5 53.5,175.4 150.4,150.5 51.2,163 150.4,150.5 50.4,150.5 150.4,150.5 51.2,138 150.4,150.5 53.5,125.6 150.4,150.5 
	57.4,113.7 150.4,150.5 62.7,102.3 150.4,150.5 69.5,91.7 150.4,150.5 77.5,82 150.4,150.5 86.6,73.4 150.4,150.5 96.8,66.1 
	150.4,150.5 107.8,60 150.4,150.5 119.5,55.4 150.4,150.5 131.6,52.3 150.4,150.5 144.1,50.7 "/>
<polygon class="st0" points="150.4,150.5 158.2,50.8 150.4,150.5 173.7,53.3 150.4,150.5 188.6,58.1 150.4,150.5 202.6,65.2 
	150.4,150.5 215.3,74.5 150.4,150.5 226.4,85.6 150.4,150.5 235.6,98.3 150.4,150.5 242.8,112.2 150.4,150.5 247.6,127.2 
	150.4,150.5 250.1,142.7 150.4,150.5 250.1,158.3 150.4,150.5 247.6,173.8 150.4,150.5 242.8,188.8 150.4,150.5 235.6,202.7 
	150.4,150.5 226.4,215.4 150.4,150.5 215.3,226.5 150.4,150.5 202.6,235.8 150.4,150.5 188.6,242.9 150.4,150.5 173.7,247.7 
	150.4,150.5 158.2,250.2 150.4,150.5 142.5,250.2 150.4,150.5 127,247.7 150.4,150.5 112.1,242.9 150.4,150.5 98.1,235.8 
	150.4,150.5 85.4,226.5 150.4,150.5 74.3,215.4 150.4,150.5 65.1,202.7 150.4,150.5 58,188.8 150.4,150.5 53.1,173.8 150.4,150.5 
	50.7,158.3 150.4,150.5 50.7,142.7 150.4,150.5 53.1,127.2 150.4,150.5 58,112.2 150.4,150.5 65.1,98.3 150.4,150.5 74.3,85.6 
	150.4,150.5 85.4,74.5 150.4,150.5 98.1,65.2 150.4,150.5 112.1,58.1 150.4,150.5 127,53.3 150.4,150.5 142.5,50.8 "/>
<polygon class="st0" points="150.4,150.5 160.8,51 150.4,150.5 181.3,55.4 150.4,150.5 200.4,63.9 150.4,150.5 217.3,76.2 
	150.4,150.5 231.3,91.7 150.4,150.5 241.7,109.8 150.4,150.5 248.2,129.7 150.4,150.5 250.4,150.5 150.4,150.5 248.2,171.3 
	150.4,150.5 241.7,191.2 150.4,150.5 231.3,209.3 150.4,150.5 217.3,224.8 150.4,150.5 200.4,237.1 150.4,150.5 181.3,245.6 
	150.4,150.5 160.8,250 150.4,150.5 139.9,250 150.4,150.5 119.5,245.6 150.4,150.5 100.4,237.1 150.4,150.5 83.5,224.8 150.4,150.5 
	69.5,209.3 150.4,150.5 59,191.2 150.4,150.5 52.6,171.3 150.4,150.5 50.4,150.5 150.4,150.5 52.6,129.7 150.4,150.5 59,109.8 
	150.4,150.5 69.5,91.7 150.4,150.5 83.5,76.2 150.4,150.5 100.4,63.9 150.4,150.5 119.5,55.4 150.4,150.5 139.9,51 "/>
<polygon class="st0" points="150.4,150.5 166,51.7 150.4,150.5 195.8,61.4 150.4,150.5 221.1,79.8 150.4,150.5 239.5,105.1 
	150.4,150.5 249.1,134.9 150.4,150.5 249.1,166.1 150.4,150.5 239.5,195.9 150.4,150.5 221.1,221.2 150.4,150.5 195.8,239.6 
	150.4,150.5 166,249.3 150.4,150.5 134.7,249.3 150.4,150.5 105,239.6 150.4,150.5 79.7,221.2 150.4,150.5 61.3,195.9 150.4,150.5 
	51.6,166.1 150.4,150.5 51.6,134.9 150.4,150.5 61.3,105.1 150.4,150.5 79.7,79.8 150.4,150.5 105,61.4 150.4,150.5 134.7,51.7 "/>
<polygon class="st0" points="150.4,150.5 181.3,55.4 150.4,150.5 231.3,91.7 150.4,150.5 250.4,150.5 150.4,150.5 231.3,209.3 
	150.4,150.5 181.3,245.6 150.4,150.5 119.5,245.6 150.4,150.5 69.5,209.3 150.4,150.5 50.4,150.5 150.4,150.5 69.5,91.7 
	150.4,150.5 119.5,55.4 "/>
<polygon class="st1" points="150,150 161.2,0.4 150,150 183.4,3.8 150,150 204.8,10.4 150,150 225,20.1 150,150 243.5,32.7 150,150 
	260,48 150,150 273.9,65.5 150,150 285.1,84.9 150,150 293.3,105.8 150,150 298.3,127.6 150,150 300,150 150,150 298.3,172.4 
	150,150 293.3,194.2 150,150 285.1,215.1 150,150 273.9,234.5 150,150 260,252 150,150 243.5,267.3 150,150 225,279.9 150,150 
	204.8,289.6 150,150 183.4,296.2 150,150 161.2,299.6 150,150 138.8,299.6 150,150 116.6,296.2 150,150 95.2,289.6 150,150 
	75,279.9 150,150 56.5,267.3 150,150 40,252 150,150 26.1,234.5 150,150 14.9,215.1 150,150 6.7,194.2 150,150 1.7,172.4 150,150 
	0,150 150,150 1.7,127.6 150,150 6.7,105.8 150,150 14.9,84.9 150,150 26.1,65.5 150,150 40,48 150,150 56.5,32.7 150,150 75,20.1 
	150,150 95.2,10.4 150,150 116.6,3.8 150,150 138.8,0.4 "/>
</svg>
